<?xml version="1.0" encoding="utf-8"?>
<!-- Generator: Adobe Illustrator 19.0.0, SVG Export Plug-In . SVG Version: 6.00 Build 0)  -->
<svg version="1.1" id="Слой_1" xmlns="http://www.w3.org/2000/svg" xmlns:xlink="http://www.w3.org/1999/xlink" x="0px" y="0px"
	 viewBox="-42 -10 114 80" style="enable-background:new -42 -10 114 80;" xml:space="preserve">
<style type="text/css">
	.st0{fill:#373435;}
	.st1{fill:#ED3237;}
	.st2{fill:#FFFFFF;}
</style>
<g>
	<path class="st0" d="M-28.4,19.9V20c0,0-0.1,0.1-0.3,0.3c-0.2,0.1-0.5,0.3-0.7,0.5c-0.2,0.2-0.3,0.3-0.4,0.4
		c-0.1,0.1,0.1,0.2,0.4,0.2c0.1,0,0.3,0,0.5,0c0.2,0,0.4,0,0.5,0c0.1,0,0.2,0,0.2,0.1c0,0,0,0.1-0.1,0.2c-0.1,0.1-0.3,0.2-0.5,0.3
		c-0.3,0.2-0.4,0.4-0.5,0.5c-0.1,0.2,0.1,0.3,0.6,0.3c0.2,0,0.5,0,1-0.2s0.7-0.1,1-0.2c0,0,0.1,0.2,0.1,0.5c0,0.1,0.1,0.2,0.2,0.3
		h0.8c0,0.1-0.2,0.3-0.6,0.5c-0.4,0.2-0.7,0.4-0.9,0.6c0,0.1,0.1,0.2,0.3,0.3c0.2,0.1,0.3,0.1,0.3,0.2v0.1c0,0.1,0,0.1-0.1,0.2
		c-0.1,0.1-0.1,0.2-0.1,0.2c0,0.2,0.2,0.3,0.7,0.3c0.1,0,0.2,0,0.4,0c0.2,0,0.3,0,0.4,0c0.2,0,0.3,0,0.3,0.1c0,0.1,0,0.1-0.1,0.2
		c-0.1,0.1-0.2,0.2-0.3,0.2c-0.1,0.1-0.1,0.1-0.1,0.2c0,0.2,0.4,0.3,1.1,0.4c0.4,0,0.5,0.1,0.5,0.2c-0.1,0.1-0.2,0.1-0.5,0.2
		s-0.6,0.1-0.9,0.2c-0.4,0.1-0.6,0.1-0.9,0.1c-0.4,0.1-1,0.2-1.7,0.4c-0.7,0.2-1.4,0.5-2.1,0.8c-0.7,0.3-1.3,0.7-1.7,1.1
		c-0.5,0.4-0.7,0.9-0.7,1.4c0,0.3,0.1,0.6,0.3,0.9s0.5,0.6,0.8,0.8c0.3,0.2,0.7,0.5,1.1,0.7c0.4,0.2,0.7,0.4,1,0.5
		c0.3,0.1,1.6,0.4,3.9,1c-0.3,0.3-0.5,0.5-0.5,0.6c0,0.1,0,0.3,0.1,0.6c0,0.3,0.1,0.5,0.1,0.7c0,0.1-0.1,0.3-0.3,0.4
		c-0.2,0.2-0.3,0.3-0.3,0.4v0.1c0,0.1-0.2,0.1-0.5,0.1h-0.2c-0.1,0-0.2,0-0.3,0l-0.6-0.1c-0.5,0-0.7,0-0.7,0.1
		c0,0.1,0.1,0.2,0.2,0.3c0.1,0.1,0.3,0.2,0.5,0.4c0.2,0.1,0.4,0.2,0.7,0.3c0.2,0.1,0.4,0.2,0.6,0.3V39c0.1,0.2-0.3,0.4-1,0.6l-1,0.3
		c-0.4,0.1-0.6,0.2-0.9,0.3l0.8,1l-0.2,0.2c-0.5,0-0.9-0.1-1.3-0.2c-0.4-0.1-0.8-0.3-1.3-0.5c-0.4-0.1-0.8-0.4-1.3-0.7
		c-0.5-0.3-1-0.6-1.6-1c-0.6-0.3-1.1-0.6-1.6-0.9s-1-0.4-1.4-0.5c-0.4-0.3-0.7-0.5-1-0.8c-0.3-0.3-0.6-0.5-0.9-0.9
		c-0.3-0.3-0.6-0.7-1-1.1c-0.4-0.4-0.8-0.9-1.3-1.5c-0.1-0.4-0.2-0.8-0.2-1.2c0-0.3,0.1-0.7,0.2-1.2c0.1-0.5,0.2-1,0.4-1.5
		c0.2-0.5,0.3-1,0.5-1.5c0.2-0.5,0.4-0.9,0.5-1.2c1.2-2.3,2.4-3.4,3.7-3.4c1.9-1.6,3.8-2.7,5.7-3.3c-0.5,0.2-0.8,0.4-0.8,0.8
		l0.2,0.1l1.3-0.4c0.2-0.1,0.5-0.2,0.8-0.3C-29.1,20.1-28.8,20-28.4,19.9L-28.4,19.9z M18.7-9.1l26.8,26.8h0.3c0,0,0.2,0,0.4,0.1
		l3.1,1.8c0.4,0.2,0.8,0.5,1.3,1c0.5,0.4,1.1,0.9,1.8,1.4c1.5,1.2,2.4,2.4,2.6,3.7c-0.2,0.1-0.3,0.4-0.5,0.8l2.1,2.1
		c-0.1-0.8-0.1-1.8-0.2-2.7l-0.1-1.8c0.1-0.3,0.2-0.8,0.2-1.4c0-0.3,0-0.7-0.1-1.2c0-0.5-0.1-0.9-0.1-1.2V20c0,0,0-0.1,0-0.2
		c0-0.1,0-0.2,0-0.2l0.2-0.2h0.1c0.2,0,0.5,0.1,0.9,0.3c0.4,0.2,0.7,0.3,0.8,0.3c0.2,0,0.4-0.1,0.5-0.4l0.1-0.6
		c0.2,0,0.3,0.1,0.4,0.2s0.2,0.4,0.3,0.6c0.1,0.2,0.2,0.4,0.3,0.6c0.1,0.2,0.2,0.3,0.4,0.3c0,0,0.2,0,0.6,0c0.4,0,0.8-0.1,1.5-0.1
		l1.2-0.1c0.2,0,0.3,0,0.5,0c0.1,0,0.3,0,0.3,0c0.1,0,0.2,0,0.3,0c0.1,0,0.2,0,0.3,0h0.3c0.1,0,0.3,0,0.5-0.1l1.5-0.2
		c0.4,0,0.8,0.1,1.1,0.4c0.3,0,0.7-0.1,1.1-0.2c0.4-0.1,0.8-0.2,1.3-0.3H71c0.2,0,0.3,0.1,0.3,0.2v0.1c0,0.2-0.1,0.3-0.4,0.6
		c-0.2,0.2-0.4,0.4-0.4,0.4c0,0.1,0.1,0.2,0.4,0.3h0.1c0,0,0.1,0,0.1,0s0.1,0,0.1,0c0.1,0,0.1,0,0.1,0.1s-0.1,0.2-0.3,0.3
		c-0.1,0.1-0.2,0.2-0.3,0.4c-0.1,0.1-0.2,0.2-0.2,0.3v0.1c0,0.1,0.2,0.2,0.5,0.3c0.3,0.1,0.5,0.3,0.5,0.4c-0.1,0.1-0.3,0.2-0.6,0.3
		c-0.3,0.1-0.5,0.2-0.4,0.4c0,0.1,0.2,0.2,0.6,0.3c0.4,0.2,0.5,0.3,0.4,0.4c-0.1,0.1-0.3,0.2-0.6,0.2c-0.3,0.1-0.6,0.1-0.9,0.2
		c-0.3,0-0.5,0.1-0.5,0.2c0,0.1,0.1,0.1,0.3,0.2c0.2,0.1,0.5,0.2,0.7,0.3c0.3,0.1,0.5,0.2,0.7,0.3c0.2,0.1,0.3,0.2,0.3,0.3v0.1
		c0,0.1-0.1,0.2-0.3,0.2c-0.2,0-0.5,0-0.9,0c-0.6,0-1.2,0-1.8-0.1c-0.7,0-1.2-0.1-1.7-0.1c-0.1,0-0.2,0-0.3,0c-0.1,0-0.2,0-0.4,0
		c-1.2-0.1-1.7,0.1-1.7,0.7v0.2l0.5,0.3l3.3-0.3c0.3,0,0.7,0,1.1,0c0.4,0,1,0,1.6,0c0,0.1,0.1,0.3,0.3,0.5c0.2,0.2,0.3,0.4,0.2,0.5
		c0,0-0.2,0.1-0.4,0.2c-0.2,0.1-0.4,0.2-0.7,0.4c-0.3,0.2-0.4,0.3-0.4,0.4c0,0.1,0,0.2,0.1,0.4c0,0.1-0.1,0.3-0.4,0.5
		c-0.3,0.2-0.4,0.4-0.4,0.5c0,0,0.2,0.2,0.4,0.3c0.3,0.2,0.4,0.3,0.4,0.5c0,0,0,0.1-0.1,0.2c0,0.1-0.1,0.1-0.1,0.2s0,0.1,0.1,0.3
		c0.1,0.1,0.1,0.2,0.1,0.3v0.1l-0.7,0.4l-4.7,0.2c-0.1,0-0.2,0.2-0.2,0.5c0,0.1,0,0.3,0.1,0.4c0,0.2,0.1,0.3,0.1,0.4l0.3,0.3
		c0.4,0,0.7,0,0.9,0c0.3,0,0.5,0,0.7,0c0.1,0,0.2,0,0.3,0c0.1,0,0.3,0,0.5,0l1.3-0.1c0.2,0,0.5,0,0.7,0c0.2,0,0.4,0,0.6,0
		c0.4,0,0.5,0,0.5,0.1s0,0.2-0.1,0.2c0,0.1-0.1,0.2-0.1,0.2c0,0.2,0.1,0.2,0.4,0.2c0.3,0,0.5,0,0.5,0c0.1,0,0.2,0.1,0.2,0.2
		s0,0.2-0.1,0.4c-0.1,0.2-0.2,0.3-0.3,0.5s-0.3,0.4-0.4,0.5c-0.2,0.3-0.3,0.4-0.3,0.5s0,0.1,0,0.2c0,0,0.1,0.1,0.1,0.1
		c0.1,0.1,0.1,0.2,0.1,0.4v0.1l-1.2,0.6c0,0,0,0.1,0.2,0.2s0.2,0.2,0.2,0.3c0,0.1-0.1,0.2-0.2,0.3c-0.2,0.1-0.3,0.2-0.6,0.2
		c-0.2,0.1-0.4,0.1-0.7,0.1s-0.4,0-0.6,0c-0.1,0-0.4,0-0.9-0.1s-1.1-0.1-1.8-0.1h-0.4c-0.1,0-0.3,0-0.6,0c-0.2,0-0.4,0-0.6,0
		c-0.2,0-0.4,0-0.8,0c-0.3,0-0.6,0-0.8,0c-0.7,0-1.2,0.1-1.7,0.4h-0.1c-0.1,0-0.3,0-0.6-0.1c-0.2-0.1-0.4-0.1-0.4-0.1
		c-0.2,0-0.4,0.1-0.5,0.3c-0.1,0-0.3-0.1-0.6-0.3c-0.3-0.2-0.6-0.4-0.9-0.6c-0.3-0.2-0.6-0.5-0.8-0.7c-0.2-0.2-0.3-0.4-0.3-0.6
		c0,0,0-0.3,0.1-0.6c0-0.4,0.1-0.9,0.1-1.4s0.1-1.2,0.1-1.9c0-0.7,0.1-1.4,0.1-2.1c0-0.6,0-1.1,0-1.6L53,34.8l1.7,2.8l0.1,0.8
		c-0.2,0.1-0.6,0.1-1,0.1c-0.6,0-1.2-0.1-1.8-0.4c-0.1,0-0.2,0.2-0.4,0.5c-0.2,0.3-0.3,0.5-0.5,0.5c-0.9-0.3-1.5-0.4-1.6-0.4
		c-0.2,0-0.4,0.1-0.6,0.2c-0.1,0.1-0.2,0.1-0.3,0.2l-30,30L17.8,70l-0.9-0.9l-28.4-28.4c-0.1,0-0.3,0-0.5-0.1
		c-0.5-0.1-1.1-0.1-1.8-0.1h-0.4c-0.1,0-0.3,0-0.6,0s-0.4,0-0.6,0c-0.2,0-0.4,0-0.8,0c-0.3,0-0.6,0-0.8,0c-0.7,0-1.2,0.1-1.7,0.4
		h-0.1c-0.1,0-0.3,0-0.6-0.1c-0.2-0.1-0.4-0.1-0.4-0.1c-0.2,0-0.4,0.1-0.5,0.3c-0.1,0-0.3-0.1-0.6-0.3c-0.3-0.2-0.6-0.4-0.9-0.6
		c-0.3-0.2-0.6-0.5-0.8-0.7c-0.2-0.2-0.3-0.4-0.3-0.6c0,0,0-0.3,0.1-0.6c0-0.4,0.1-0.9,0.1-1.4c0-0.6,0.1-1.2,0.1-1.9
		c0-0.7,0.1-1.4,0.1-2.1c0-1.2-0.1-2.4-0.2-3.4c-0.1-1-0.2-2.2-0.2-3.4l-0.1-1.8c0.1-0.3,0.2-0.8,0.2-1.4c0-0.3,0-0.7-0.1-1.2
		c0-0.5-0.1-0.9-0.1-1.2V20c0,0,0-0.1,0-0.2c0-0.1,0-0.2,0-0.2l0.2-0.2h0.1c0.2,0,0.5,0.1,0.9,0.3S-21,20-20.9,20
		c0.2,0,0.4-0.1,0.5-0.4l0.1-0.6c0.2,0,0.3,0.1,0.4,0.2s0.2,0.4,0.3,0.6c0.1,0.2,0.2,0.4,0.3,0.6c0.1,0.2,0.2,0.3,0.4,0.3
		c0,0,0.2,0,0.6,0s0.8-0.1,1.5-0.1l1.2-0.1c0.2,0,0.3,0,0.5,0c0.1,0,0.3,0,0.3,0c0.1,0,0.2,0,0.3,0c0.1,0,0.2,0,0.3,0h0.3
		c0.1,0,0.3,0,0.5-0.1l0.9-0.1L16.9-9.1l0.9-0.9L18.7-9.1L18.7-9.1z M54.2,30L17.8-6.4L-18.6,30l36.4,36.4L54.2,30z"/>
	<path class="st1" d="M17.8-5.5l23.1,23.1c-0.1,0-0.1,0-0.1,0c-0.6,0-0.9,0.3-0.9,0.9C40,19,40,19.4,40,19.9c-0.2,0.5-0.3,1-0.3,1.7
		c0,0.1,0,0.3,0,0.5c0,0.3,0.1,0.5,0.1,0.9c0,0.3,0.1,0.6,0.1,1c0,0.3,0,0.7,0,1c0,0.1,0,0.2,0,0.4s0,0.3-0.1,0.5c0,0,0,0.1,0.1,0.3
		c0,0.1,0.1,0.2,0.1,0.3v0.9c0,0.3,0,0.8-0.1,1.4c0,0.6-0.1,1.1-0.1,1.4c0,0.5,0,0.9,0.1,1.1c0,0.2,0.1,0.6,0.1,1.1
		c0,0.2-0.1,0.8-0.1,1.7c0,0.3,0,0.6,0,0.9c0,0.3,0,0.5,0,0.7v1c0,0.3,0,0.6,0,0.8c0,0.3,0,0.5,0.1,0.6l0.1,0.3l1.3-0.6l0.3-0.1
		c0.1,0,0.3,0.1,0.4,0.2s0.3,0.3,0.5,0.4s0.3,0.3,0.4,0.4c0.1,0.1,0.2,0.2,0.3,0.2c0,0,0.1-0.1,0.3-0.2c0.2-0.1,0.3-0.3,0.5-0.5
		c0.2-0.2,0.3-0.4,0.5-0.5c0.2-0.2,0.3-0.2,0.3-0.3c0.1,0,0.2,0,0.3,0.1c0.1,0,0.2,0,0.3,0c0,0,0.1,0,0.1,0l-28,28L-8.8,38.8
		l0.8-0.4v-0.1c0-0.2,0-0.4-0.1-0.4c-0.1-0.1-0.1-0.1-0.1-0.1c0,0,0-0.1,0-0.2s0.2-0.3,0.4-0.5c0.1-0.2,0.2-0.3,0.4-0.5
		c0.1-0.2,0.2-0.4,0.3-0.5c0.1-0.2,0.1-0.3,0.1-0.4s-0.1-0.2-0.2-0.2c0,0-0.2,0-0.5,0.1c-0.3,0-0.4,0-0.4-0.2c0,0,0-0.1,0.1-0.2
		c0-0.1,0.1-0.2,0.1-0.3c0-0.1-0.2-0.1-0.5-0.1c-0.2,0-0.4,0-0.6,0c-0.2,0-0.4,0-0.7,0l-1.4,0.1c-0.2,0-0.4,0-0.6,0s-0.3,0-0.4,0
		c-0.2,0-0.4,0-0.7,0l-0.1,0l-1.4-1.4c0-0.2,0.1-0.4,0.2-0.4l4.8-0.2l0.7-0.4v-0.1c0,0,0-0.1-0.1-0.3c-0.1-0.1-0.1-0.2-0.1-0.3
		c0,0,0-0.1,0.1-0.2c0-0.1,0.1-0.1,0.1-0.2c0-0.1-0.1-0.3-0.4-0.5c-0.3-0.2-0.4-0.3-0.5-0.4c0-0.1,0.1-0.3,0.4-0.5
		c0.3-0.2,0.4-0.4,0.4-0.5c-0.1-0.2-0.1-0.3-0.1-0.4c0-0.1,0.1-0.3,0.4-0.5c0.3-0.2,0.5-0.3,0.7-0.4s0.3-0.2,0.4-0.2
		c0.1-0.1,0-0.3-0.2-0.5c-0.2-0.2-0.3-0.4-0.3-0.5c-0.6,0-1.2,0-1.6,0c-0.5,0-0.8,0-1.1,0.1l-3.4,0.3l-0.5-0.3v-0.2
		c0-0.1,0-0.1,0-0.2l0.4-0.4c0.3-0.1,0.7-0.2,1.3-0.1c0.1,0,0.3,0,0.4,0s0.2,0,0.3,0c0.5,0,1,0,1.7,0.1c0.7,0,1.3,0.1,1.9,0.1
		c0.4,0,0.7,0,0.9-0.1c0.2,0,0.3-0.1,0.3-0.2v-0.1c0-0.1-0.1-0.2-0.3-0.3c-0.2-0.1-0.5-0.2-0.8-0.3c-0.3-0.1-0.5-0.2-0.8-0.3
		C-9.3,25.1-9.4,25-9.4,25c0-0.1,0.2-0.2,0.5-0.2c0.3,0,0.6-0.1,0.9-0.2c0.3-0.1,0.5-0.1,0.6-0.2c0.1-0.1,0-0.2-0.4-0.4
		c-0.4-0.1-0.6-0.2-0.6-0.3c0-0.1,0.1-0.3,0.5-0.4c0.3-0.1,0.5-0.2,0.6-0.3c0-0.2-0.2-0.3-0.5-0.4c-0.3-0.1-0.5-0.2-0.5-0.3v-0.1
		c0-0.1,0.1-0.2,0.2-0.3s0.2-0.2,0.4-0.4c0.1-0.1,0.2-0.2,0.3-0.3s0-0.1-0.1-0.1c0,0,0,0-0.1,0c0,0-0.1,0-0.1,0H-8
		c-0.2-0.1-0.4-0.2-0.4-0.3c0,0,0,0,0-0.1L17.8-5.5L17.8-5.5z"/>
	<path class="st1" d="M47.1,23.9l1.9,1.9c-0.1,0.1-0.1,0.2-0.2,0.3c-0.2,0.3-0.5,0.5-0.7,0.8c-0.3,0.3-0.5,0.5-0.7,0.7
		c-0.2,0.2-0.4,0.2-0.4,0.1l-0.1-0.2c-0.1-0.8-0.1-1.6-0.1-2.3c0-0.5,0.1-1,0.2-1.4C47,23.8,47.1,23.8,47.1,23.9L47.1,23.9z"/>
	<path class="st2" d="M-1.7,19.5H-1c0.3,0,0.6-0.1,0.9-0.4c0.3-0.3,0.6-0.4,0.8-0.4c0.4,0,0.7,0.2,1,0.6c0.3,0.4,0.5,0.9,0.9,1.4
		l6.3,6.2c0.3-0.1,0.6-0.3,0.8-0.6c0.2-0.4,0.4-0.8,0.5-1.3s0.2-1,0.2-1.6c0-0.6,0.1-1.1,0.1-1.6c0-0.5-0.1-0.7-0.2-0.4
		s-0.3,0.6-0.4,1.1c-0.1,0.2-0.1,0.3-0.2,0.3c-0.1,0-0.1-0.1-0.1-0.2c0-0.1-0.1-0.3-0.1-0.4c0-0.2,0-0.3,0-0.4l0-0.3
		c0-0.6,0.1-1.1,0.2-1.4c0-0.2,0.1-0.2,0.2-0.2c0.1,0,0.1,0,0.2,0.1c0.1,0.1,0.1,0.1,0.2,0.2c0.1,0.1,0.1,0.1,0.1,0.1
		c0,0,0.1-0.1,0.2-0.4c0.1-0.3,0.3-0.4,0.5-0.4c0.1,0,0.2,0,0.3,0.1c0.1,0.1,0.2,0.1,0.3,0.1c0.1,0,0.3-0.2,0.5-0.5
		c0.2-0.3,0.5-0.5,0.6-0.5c-0.1,0,0.2,0,0.7,0c0.5,0,1.2,0,1.9,0c0.4,0,0.8-0.1,1-0.3c0.2-0.2,0.5-0.3,0.8-0.3
		c0.3,0,0.5,0.2,0.5,0.5C17.9,19,18,19.5,18,20c0,0.6,0,1.4-0.1,2.2c-0.1,0.8-0.1,1.5-0.1,2.2v1.3c0,0.2,0,0.4,0,0.6
		c0,0.3,0,0.6,0,1l-0.1,2.4c-0.1,2.5-0.2,3.6-0.2,3.4c0,1.3,0.1,2.2,0.2,2.9c0.1,0.1,0.2,1.1,0.3,2.9c-0.1,0.3-0.3,0.5-0.5,0.3
		C17.1,39,16.9,39,16.7,39c0,0-0.2,0.1-0.6,0.4c-0.4,0.3-0.8,0.4-1.3,0.4c-0.2,0-0.4-0.1-0.7-0.2s-0.5-0.2-0.5-0.2
		c-0.1,0-0.3,0.1-0.4,0.3l-1.2-1.1c-0.4,0-0.5,0.1-0.5,0.3V39c0,0.3-0.1,0.5-0.3,0.5c-0.2,0-0.4-0.1-0.6-0.2
		c-0.2-0.1-0.5-0.3-0.8-0.5s-0.5-0.4-0.8-0.6c-0.3-0.2-0.5-0.4-0.7-0.6l-0.6-0.5l-1.8-1.9c-0.7-0.7-1.3-1.2-2-1.6
		c0,0-0.1-0.1-0.1-0.1c-0.3,0-0.5,0.4-0.5,1.2v0.5c0,1.4-0.2,2.3-0.5,2.8H2.5c-0.1,0-0.2,0-0.4-0.1s-0.3-0.1-0.4-0.1
		c0,0-0.1,0.1-0.2,0.4S1.2,38.5,1,38.8c-0.2,0.3-0.4,0.5-0.5,0.6l-0.7,0.5c-0.2,0.2-0.4,0.4-0.5,0.6c0,0-0.2-0.1-0.3-0.2
		s-0.4-0.3-0.6-0.4c-0.3-0.2-0.5-0.3-0.8-0.4c-0.3-0.1-0.5-0.2-0.8-0.2c-0.1,0-0.3,0-0.6,0c-0.2,0-0.4,0-0.6,0c0,0-0.1,0-0.2,0
		s-0.2,0-0.3-0.1l-0.3-1c0,0,0-1.1,0.1-3.4l0.1-2.2c0-0.4,0-0.7,0-0.9c0-0.2,0-0.5,0-0.6v-0.4c0-0.5,0-1,0-1.5
		c0-0.5-0.1-0.9-0.1-1.2c-0.1-0.5-0.2-1.2-0.2-2.1c0-0.3,0-0.7,0-1.3c0-0.6,0-1,0-1.3v-0.6c0-0.1,0-0.2,0-0.3c0-0.1,0-0.2,0-0.3
		c0-0.2,0-0.6-0.1-1.1c-0.1-0.5-0.1-0.9-0.1-1.1c0-0.6,0.1-0.9,0.3-0.9c0.1,0,0.2,0.1,0.4,0.2c0.2,0.1,0.2,0.2,0.3,0.2
		c0.2,0,0.3-0.1,0.5-0.1c0.2,0,0.5-0.1,0.7-0.2c0.5-0.2,0.8-0.5,0.9-0.9c0,0,0.1,0.1,0.2,0.2c0.1,0.1,0.1,0.3,0.2,0.5
		c0.1,0.2,0.2,0.3,0.2,0.5C-1.8,19.3-1.7,19.4-1.7,19.5L-1.7,19.5z"/>
	<path class="st2" d="M37,18.6c0,0.1-0.1,0.2-0.2,0.4c-0.1,0.2-0.1,0.3-0.1,0.4c0,0.1,0.1,0.2,0.2,0.3l0.5,0.1v0.1
		c0,0.2-0.1,0.6-0.2,1c-0.1,0.4-0.2,0.7-0.2,0.7c-0.2,0.5-0.6,0.7-1.2,0.8c-0.7,0.1-1.3,0.3-2,0.4v0.1c0,0.2,0.1,0.3,0.4,0.3
		c0.5,0,1.2,0.1,2,0.2l2,0.3c0,0,0,0,0,0.1c0.2,0.5-0.4,0.7-1.8,0.7h-1.1c-0.3,0-0.6,0-0.8,0.1c-0.2,0.1-0.4,0.2-0.4,0.3
		c0,0.2,0.2,0.3,0.7,0.4c0.3,0.1,0.5,0.2,0.5,0.3c0,0.1-0.1,0.2-0.3,0.3c-0.2,0.1-0.4,0.2-0.7,0.3s-0.5,0.1-0.7,0.1h-0.5
		c-0.1,0-0.2,0-0.3,0c-0.1,0-0.2,0-0.3-0.1l-1-0.1c-0.2,0.2-0.3,0.6-0.3,1.1c-0.1,0.5-0.1,1-0.1,1.6c0,0.5,0,1.1,0,1.6
		c0,0.6,0,1.1,0,1.5c0,0.5,0,1,0,1.5c0,0.5,0,1,0,1.6c0,0.2,0,0.3,0,0.5s0,0.2,0,0.3c0,0.2,0,0.5,0,0.9c0,0.4,0,0.7,0,0.9
		c0-0.1-0.1,0-0.3,0.2c-0.2,0.2-0.4,0.5-0.6,0.9s-0.5,0.7-0.7,0.9c-0.3,0.3-0.5,0.4-0.7,0.4c-0.4,0-0.7-0.5-0.9-1.5
		c-0.8-1-1.6-1.5-2.4-1.5c-0.2,0.1-0.5,0.2-1,0.3c-0.1,0-0.2-0.1-0.4-0.3l-0.2-0.3C24,37,24,36.9,24,36.8c0-0.1,0-0.2,0-0.2
		c0-0.1,0-0.2,0-0.2l0.2-5.4c0-0.1,0-0.2,0-0.5c0-0.2,0-0.5-0.1-0.9l-0.1-1.8c0-0.2,0-0.4,0-0.6c0-0.2,0-0.5-0.1-0.7
		c0-0.2,0-0.4-0.1-0.6c0-0.2,0-0.2,0-0.2l-0.2-0.2c0,0-0.2-0.1-0.3,0c-0.2,0-0.4,0-0.6,0.1c-0.2,0-0.5,0.1-0.7,0.1
		c-0.2,0-0.5,0.1-0.7,0c-1.2,0-1.8-0.2-1.8-0.7c0-0.2,0.1-0.4,0.3-0.6c0.2-0.2,0.3-0.5,0.3-0.8c0-0.2,0.1-0.3,0.2-0.4
		c0.1-0.1,0.3-0.2,0.4-0.3c0.2-0.1,0.3-0.1,0.4-0.2c0.1,0,0.2-0.1,0.2-0.1c0,0-0.1-0.1-0.3-0.2c-0.2-0.1-0.4-0.2-0.6-0.3
		s-0.4-0.2-0.6-0.3c-0.2-0.1-0.3-0.2-0.3-0.3c0-0.2,0.1-0.4,0.4-0.6c0.2-0.2,0.4-0.4,0.4-0.4c0,0.1-0.1-0.1-0.2-0.5
		c0,0-0.1-0.1-0.1-0.2c0-0.1,0.1-0.4,0.2-0.7c0.1-0.3,0.2-0.5,0.2-0.6l0.3-0.2l11.1,0.1c0.5,0,1.1-0.1,1.8-0.2s1.6-0.1,2.6-0.1
		C36.5,18.3,36.8,18.4,37,18.6L37,18.6z"/>
</g>
</svg>
